<?xml version="1.0" standalone="no"?>
<!DOCTYPE svg PUBLIC "-//W3C//DTD SVG 20010904//EN"
 "http://www.w3.org/TR/2001/REC-SVG-20010904/DTD/svg10.dtd">
<svg version="1.0" xmlns="http://www.w3.org/2000/svg"
 width="1200.000000pt" height="1200.000000pt" viewBox="0 0 1200.000000 1200.000000"
 preserveAspectRatio="xMidYMid meet">
<metadata>
Created by potrace 1.11, written by Peter Selinger 2001-2013
</metadata>
<g transform="translate(0.000000,1200.000000) scale(0.100000,-0.100000)"
fill="#000000" stroke="none">
<path d="M8055 11574 c-26 -19 -77 -64 -113 -99 -107 -101 -132 -123 -227
-194 -160 -120 -300 -185 -480 -222 -137 -28 -380 -32 -523 -7 -120 20 -105
16 -297 78 -82 27 -188 57 -235 66 -165 35 -484 18 -686 -36 -90 -24 -115 -34
-189 -72 -153 -78 -255 -176 -418 -403 -170 -235 -283 -332 -449 -386 -150
-49 -252 -120 -301 -212 -19 -36 -22 -57 -22 -147 0 -97 3 -112 38 -203 l38
-98 -28 -33 c-279 -325 -485 -794 -539 -1226 -3 -30 -8 -68 -10 -85 -2 -16 -6
-133 -8 -260 l-4 -230 -55 -16 c-193 -57 -339 -227 -365 -425 -5 -33 -8 -217
-7 -410 2 -345 2 -350 27 -420 59 -168 194 -296 353 -335 28 -7 53 -15 56 -18
4 -4 10 -28 13 -56 38 -316 164 -668 342 -955 218 -353 546 -659 911 -853 l98
-52 -1 -40 c-1 -22 -2 -45 -3 -51 0 -6 -31 -14 -68 -18 -80 -8 -264 -40 -360
-62 -443 -102 -727 -274 -853 -516 -44 -85 -77 -195 -82 -279 l-3 -54 -138
-68 c-986 -483 -1637 -1422 -1737 -2502 -5 -60 -10 -236 -10 -390 l0 -280
4286 0 4286 0 -5 350 c-4 292 -8 372 -26 485 -75 475 -228 872 -487 1265 -300
455 -742 839 -1239 1076 -69 33 -125 63 -126 67 -29 288 -134 469 -356 616
-212 139 -549 244 -938 291 -81 10 -81 10 -81 63 l1 47 85 45 c241 129 392
242 590 440 352 351 591 823 667 1317 l18 112 67 21 c167 51 287 167 346 334
l25 71 1 375 c0 394 -4 434 -47 530 -61 133 -194 246 -331 281 -25 6 -46 16
-47 23 0 6 -2 103 -3 216 -4 236 -9 296 -42 475 -70 388 -238 754 -486 1061
l-57 72 87 57 c641 426 789 1120 375 1750 -118 179 -144 194 -228 129z"/>
</g>
</svg>
